<?xml version="1.0" encoding="UTF-8"?>
<svg id="Calque_1" data-name="Calque 1" xmlns="http://www.w3.org/2000/svg" viewBox="0 0 646.23 256.82">
  <defs>
    <style>
      .cls-1 {
        fill: #c2ac9d;
      }

      .cls-2 {
        fill: #403a3a;
      }

      .cls-3 {
        fill: #c0aa9b;
      }

      .cls-4 {
        fill: #3f3939;
      }

      .cls-5 {
        fill: #3c3636;
      }

      .cls-6 {
        fill: #403b3b;
      }

      .cls-7 {
        fill: #3c3737;
      }

      .cls-8 {
        fill: #c0aa9a;
      }

      .cls-9 {
        fill: #bfa999;
      }
    </style>
  </defs>
  <path class="cls-1" d="m531.12,97.4v55.9c0,.9-.5,1.6-1.4,1.6s-1.5-.5-1.7-1.4c-.2-.6-.1-1.3-.1-1.9V45.6c0-3,0-2.9-3-3.4-8-1.2-15.9-2.5-23.9-3.7-8.7-1.4-17.5-2.6-26.3-4-7.6-1.2-15.1-2.5-22.7-3.6-6.7-1.1-13.4-2-20.1-3.1-6.4-1-12.8-2-19.1-3-.4-.1-.8-.2-1.2-.2-.7-.1-1.1.3-1.1.9v15.1c0,2.5-.5,2.9-3,2.7-2.1-.2-2.2-.2-2.2,2.2v98.1c.1,1.6.2,1.8,1.8,1.8h11.3c2,0,2.7.4,2.7,1.6s-.7,1.7-2.6,1.7h-13.7c-2.1,0-2.7-.6-2.8-2.7V44.3c-.1-1.7-.2-1.8-1.9-2.1-7.3-1.1-14.7-2.2-22-3.2-5.5-.8-11-1.6-16.6-2.4-1.7-.2-1.9,0-1.9,1.8v107.9c0,4-.2,4.3-4.4,4.3-7.4,0-14.9.5-22.3.7-4.8.1-9.6.1-14.4.4-4.8.4-9.6.2-14.4.5-9.4.5-18.8.7-28.3,1s-19,.6-28.5,1c-4.7.2-9.4.2-14.1.4-1.3,0-2.6.2-3.8.3-4.8.6-9.3-.8-13.9-2-9.9-2.5-19.8-5-29.7-7.5-2.7-.7-2.8-.8-2.8-3.6v-61.4c0-2,.7-3,2.5-3.8,12.2-5.1,24.4-10.3,36.6-15.5.3-.1.6-.3.9-.4,1.5-.5,2.5.1,2.7,1.7.1.7,0,1.4,0,2.2v83.9c0,2.8,0,2.7,2.8,2.3,6-.9,12-1.7,18-2.6,5.9-.9,11.8-1.7,17.8-2.6,5.1-.7,10.1-1.5,15.2-2.2,5.4-.8,10.7-1.6,16.1-2.4.9-.1,1.3-.5,1.2-1.4v-71.7c0-3.5,0-3.1-3.3-3.3-4.9-.3-9.9-.9-14.8-1.3-2.2-.2-4.5-.3-6.7-.5-8.7-.8-17.5-1.3-26.3-2.1-5.7-.5-11.4-1-17.2-1.4-7.8-.6-15.6-1.1-23.4-2-3.2-.4-5.7.3-8.4,1.8-10.8,5.9-21.7,11.6-32.6,17.4q-3.4,1.8-3.4,5.6v68.4c-.1,2-.6,2.6-2.6,2.5-2.9-.2-5.7-.5-8.6-.7-2.5-.2-5.1-.5-7.6-.7-1.5-.1-1.6,0-1.6,1.6v10.1c0,1.6-.6,2.5-1.6,2.5-1-.1-1.6-.9-1.7-2.5v-10.1q0-1.9-2-2.1c-5.2-.5-10.5-1-15.7-1.4-3.3-.3-6.5-.6-9.8-.9h-.5c-1-.2-1.7-.7-1.7-1.7.1-1,.8-1.6,1.8-1.6,1.2,0,2.4,0,3.6.1,6.9.6,13.8,1.2,20.7,1.9.2,0,.5,0,.7.1q2.8.4,2.8-2.6v-76.7c0-2.3.7-3.8,2.5-5.3,5.8-4.8,11.3-9.9,17-14.8,6.8-5.9,13.7-11.8,20.5-17.7,5.6-4.9,11.2-9.8,16.8-14.7,1.7-1.5,3.6-2.9,5.3-4.5,1-.9,2-1.2,3.3-1,2.9.4,5.9.8,8.8,1.2,6.2.9,12.3,1.8,18.5,2.7,5.8.9,11.7,1.7,17.5,2.5,6.2.9,12.5,1.8,18.7,2.7,6,.9,12,1.8,18,2.6,6.1.9,12.2,1.8,18.2,2.6,5.8.8,11.7,1.7,17.5,2.5,6.2.9,12.3,1.8,18.5,2.7,5.1.7,10.1,1.5,15.1,2.2.2,0,.5.1.7.1,2.3.3,2.5.1,2.5-2.2v-14.6c0-2.8,0-2.9,2.7-3.6,8.7-2.3,17.4-4.6,26.2-6.9,5.5-1.4,11-2.9,16.4-4.4.7-.2,1.4-.4,2.1-.4.9,0,1.5.5,1.6,1.4.1.6,0,1.3,0,1.9v35.2c0,.6.3,1.1,1,1.1.8,0,.8-.6.8-1.2v-15.6c0-1.9.7-2.5,2.5-2.2,7.2,1.1,14.3,2.3,21.5,3.4,6.8,1.1,13.5,2.1,20.3,3.2,7.7,1.2,15.4,2.5,23.2,3.7,7.6,1.2,15.1,2.3,22.7,3.5,8.7,1.4,17.5,2.8,26.2,4.2,1.3.2,2.7.4,4,.6,3.4.5,3.5.5,3.5,4.1.1,18.2.1,36.2.1,54.1Zm-272.1,52.5c1,.6,1.8.4,2.6.4,4-.1,8-.1,12-.4,4.6-.3,9.3-.3,13.9-.4,9.6-.4,19.2-.5,28.7-1,4.6-.2,9.3-.2,13.9-.4,7.6-.4,15.2-.5,22.8-.7,3.6-.1,3.4.2,3.4-3.4V37.6c.1-1.2-.5-1.7-1.6-1.9-4.7-.6-9.3-1.3-14-2-6.2-.9-12.3-1.8-18.5-2.7-5.8-.9-11.7-1.7-17.5-2.6-7.1-1-14.2-2-21.3-3-6-.9-12-1.8-18-2.7-6.2-.9-12.3-1.7-18.5-2.6-7.1-1-14.2-2.1-21.3-3.2-7.1-1-14.2-1.9-21.3-3.1-2.2-.4-3.6.2-5.1,1.6-3.1,2.8-6.3,5.6-9.5,8.4-5.8,5.1-11.7,10.2-17.5,15.2-4.1,3.6-8.2,7.1-12.3,10.7-5.9,5.1-11.8,10.3-17.7,15.4-1.4,1.2-1.8,2.4-1.8,4.2v77c.1,1.9.1,2,2.1,2.1,4.4.4,8.8.7,13.1,1.1,1.8.2,1.9.1,2-1.7v-60.9c0-2.9.1-5.8,0-8.6,0-1.3.5-2,1.6-2.6,13.1-6.9,26.1-13.9,39.1-20.9,1.3-.7,2.5-1,3.9-.8,4.5.4,9.1.6,13.6,1.1,2,.2,4,.3,6,.5,4.8.4,9.7.9,14.5,1.3,4.7.4,9.4.7,14.1,1.1,6.5.6,13,1.2,19.5,1.8,6.9.6,13.9,1,20.8,1.6,2.1.2,4.3.2,6.4.5,2.6.3,3,.8,3,3.4v75.8c0,2.8-.4,3.2-3.3,3.6-2.8.3-5.5.7-8.3,1.1-7.4,1.1-14.8,2.2-22.2,3.3-2.4,0-4.7.4-7.3.8Zm-36.8-84.9c-.7-.1-1.1.2-1.5.3-10.8,4.6-21.6,9.2-32.4,13.8-1.5.6-2,1.4-2,3,.1,19.3,0,38.5,0,57.8q0,2.2,2.1,2.7c7.7,1.9,15.3,3.9,23,5.8,3.5.9,7.1,1.8,10.8,2.7v-86.1ZM401.72,4.2c-.5-.2-1,.1-1.4.2-7.6,2-15.3,4-22.9,6-5.3,1.4-10.6,2.8-16,4.2-1,.3-1.9.5-1.9,2,.1,5,.1,10.1,0,15.1,0,1.1.5,1.5,1.5,1.6,2.8.4,5.7.9,8.5,1.3,9.9,1.4,19.7,2.9,29.6,4.3,2.7.4,2.9.3,2.9-2.5V6.5c0-.8.3-1.7-.3-2.3Z"/>
  <path class="cls-3" d="m541.52,237c.9-1,1.3-2.3,1.9-3.6,4.8-10.9,9.5-21.8,14.3-32.7,2.5-5.8,5.1-11.5,7.5-17.4.6-1.3,1.2-2,2.8-2,2.7.1,5.4.1,8.2,0,1,0,1.4.4,1.4,1.4,0,2.6.4,5.2.5,7.9.3,7.2.9,14.3,1.3,21.5.2,3.1.2,6.2.5,9.3.4,4.7.3,9.4.7,14.1.5,6.4.8,12.9,1.1,19.3-.7.6-1.6.3-2.3.3h-7.4c-1.2,0-1.8-.5-1.8-1.7v-.5c-.2-4.9-.4-9.7-.6-14.6-.3-7.7-.7-15.3-1.1-23-.3-6.6-.8-13.2-.9-19.8,0-1.2-.1-2.3-.7-3.7-2,4.5-4,8.8-5.9,13.1-4,9-7.9,18-11.9,27-3,6.9-6.1,13.7-9.2,20.6-.4,1-.5,2.6-2.1,2.5-1.4-.1-1.4-1.5-1.9-2.5-3.3-7.3-6.6-14.6-9.9-21.8-5.2-11.6-10.5-23.1-15.7-34.7-.2-.4-.3-.9-.8-1.2-.8.1-.5.7-.5,1.1-.2,5-.3,10.1-.6,15.1-.6,7.6-.7,15.3-1.2,22.9-.3,4.7-.6,9.4-.6,14.1,0,1.9-.3,3.8-.4,5.7-.1.9-.4,1.2-1.3,1.3-3.5.3-3.7.2-3.5-3.3.4-7.3.9-14.6,1.3-22,.2-3,.2-6.1.5-9.1.4-4.4.4-8.9.7-13.4.4-6.9.9-13.8,1.3-20.8.1-1.4.1-2.7.1-4.1,0-.9.4-1.3,1.3-1.3h8.2c1.2,0,1.5.8,1.8,1.6,2.1,4.6,4.3,9.3,6.4,13.9,2.9,6.2,5.7,12.5,8.5,18.8,2.9,6.4,5.9,12.8,8.8,19.2.3,1.1.5,1.9,1.2,2.5Z"/>
  <path class="cls-3" d="m488.32,216c.1,6.7-.9,12.8-3.4,18.6-4.2,9.4-11.4,15.6-20.9,19.2-5.7,2.2-11.7,3.2-17.9,2.8-14-.9-25.3-9-29.4-23.1-1.9-6.4-2.1-12.8-1.4-19.4.6-5.9,2.2-11.4,5.3-16.5,4.4-7.2,10.8-11.9,18.6-14.8,5.5-2.1,11.3-3.1,17.1-2.8,8.7.4,16.4,3.2,22.6,9.5,5.2,5.3,7.9,11.9,9,19.2.3,2.6.5,5.2.4,7.3Zm-11.9,2.4c.1-5.1-.6-10.2-2-15.1-1.1-3.9-2.9-7.4-5.5-10.5-4.7-5.4-10.9-7.6-17.9-7.9-1.3-.1-2.5,0-3.7.5-9,3.6-14.9,10.2-18,19.1-3.9,11.3-3.1,22.6,1,33.7,1.7,4.4,4.3,8.2,8.2,11,8.9,6.1,24.1,6.1,31.9-7.4,4.3-7.3,5.9-15.2,6-23.4Z"/>
  <path class="cls-9" d="m401.02,218.4v34.7q0,2.1-2.1,2.1h-6q-2.5,0-2.5-2.7v-30.4c0-3.8.4-3.4-3.3-3.4h-29.5c-.8,0-1.2.3-1.2,1.1v33.8c.1,1.1-.3,1.6-1.5,1.6-2.6-.1-5.1-.1-7.7,0-1.2,0-1.6-.5-1.5-1.6v-70.6c-.1-1.3.5-1.6,1.7-1.6,2.4.1,4.8,0,7.2,0,1.7,0,1.7.1,1.8,1.8v29.5c0,1.7.1,1.8,1.7,1.8h30.5c1.7,0,1.8-.1,1.8-2v-28c0-3.4-.3-3,3.1-3h5.8c1.7,0,1.7.1,1.8,1.8v10.1c-.1,8.2-.1,16.6-.1,25Z"/>
  <path class="cls-6" d="m89.42,195.6v57.9q0,1.8-1.9,1.8c-1,0-1.9.1-3-.2v-73.7h7.2c1.1,0,1.5.8,2,1.4,3.1,3.9,6.3,7.9,9.4,11.8,10.1,12.7,20.2,25.4,30.2,38.1.5.7.9,1.5,1.8,2,.5-.8.3-1.7.3-2.5v-48.2c0-3-.3-2.6,2.7-2.6h1.4c.6,0,.8.4.8.9v72.9c-.1,1.3-1.1,1.8-2.1,1-.6-.5-1.1-1.2-1.6-1.8-15.2-19-30.3-37.9-45.5-56.9-.1-.6-.5-1.4-1.7-1.9Z"/>
  <path class="cls-2" d="m151.92,255.3c1.1-2.5,2-4.7,3-6.9,9.7-22.2,19.4-44.3,29.2-66.5.4-.9.4-2.2,1.7-2.3,1.6-.1,1.5,1.4,1.9,2.4,10.4,23.7,20.8,47.4,31.2,71.1.3.6.7,1.3.7,2.2h-11c-1,0-1.2-.7-1.4-1.3-1-2.4-2-4.7-2.9-7.1-1.4-3.3-2.8-6.6-4.1-10-.5-1.3-1.1-1.8-2.6-1.8-9.8.1-19.5.1-29.3,0-1.6,0-2.2.6-2.8,1.9-2.1,5.2-4.2,10.4-6.4,15.5-1.4,3.3-.4,2.6-4.1,2.7-.9.1-1.8.1-3.1.1Zm16-24.5h29.5c-4.9-11.9-9.7-23.7-14.6-35.9-5,12.2-9.9,24-14.9,35.9Z"/>
  <path class="cls-4" d="m295.32,191.1c-5.8-2.4-11.4-4.5-17.3-5.6-1.9-.3-3.8-.6-5.7-.7-3.5-.2-6,1.3-7.3,4.6-1.9,4.6-1.3,8.9,1.7,12.9,1.9,2.4,4.2,4.4,6.8,6.1,2.8,1.8,5.7,3.6,8.6,5.3,3.2,1.9,6.3,3.8,9.3,5.9,1.9,1.4,3.6,2.9,5.2,4.6,7.9,8.1,5.2,21.4-2.4,27.2-3.6,2.7-7.7,4.2-12.1,4.9-9.4,1.5-18.4-.4-27.3-3.4-.9-.3-1.3-.8-1.2-1.8.1-.9,0-1.8,0-2.6,0-.3,0-.6.1-1.2,1,.4,1.9.8,2.8,1.2,4.7,2.1,9.5,3.8,14.7,4.3,3.7.3,7.3-.1,10.8-1.6,9-3.9,10.2-16.5,4-21.9-1.8-1.6-3.6-3.2-5.7-4.4-3.1-1.8-6.2-3.6-9.4-5.3-3.1-1.7-6.3-3.5-9.1-5.8-3.4-2.8-6.2-6-7.3-10.4-2.1-9,2.8-17.8,11.8-21.3,4-1.5,8.2-1.9,12.5-1.7,5.5.2,10.9,1.5,16.2,3,1.2.3,1.5.8,1.3,2-.3,1.6-.3,3.6-1,5.7Z"/>
  <path class="cls-8" d="m646.22,248c.1,2.2-.5,4.1-.8,6-.1.8-.5,1.3-1.4,1.2h-41.4c-1,.1-1.5-.3-1.5-1.4v-69.5c0-3.2-.3-3,2.9-3h39.9c2,0,1.9,0,1.6,2.1-.2,1.4-.5,2.8-.6,4.3-.1,1-.4,1.2-1.4,1-3.7-.7-7.4-1.2-11.1-1.8-2.3-.4-4.5-.9-6.8-1.1-4.2-.5-8.3.2-12.3,1.3-1.2.3-1.5,1-1.5,2.1v23.7c0,1.6.1,1.7,1.8,1.7h20.4c2.5,0,3.3,1.1,2.6,3.5-.1.4-.4.7-.8.7h-21.6q-2.4,0-2.4,2.3v27.8q0,2.2,2.1,2.1c4.1-.3,8.3-.7,12.4-1.1,4-.4,7.9-.9,11.9-1.2,2.6-.3,5.2-.8,8-.7Z"/>
  <path class="cls-5" d="m41.92,248.2c-.1,2.1-.7,4.2-1,6.3-.1.6-.4.8-1,.8H.82c-.6,0-.8-.3-.8-.9v-71.4c-.1-1.1.2-1.6,1.4-1.6,2.6.1,5.3.1,7.9,0,1.4-.1,1.7.5,1.6,1.7v65c0,.8.2,1.3,1.1,1.5,4.5,1.1,8.9,2.2,13.7,1.1,4.7-1.1,9.4-1.7,14.2-2.5.6-.1,1.2-.4,2,0Z"/>
  <path class="cls-7" d="m64.52,218.4v34.8c0,2.2.2,2.1-2,2.1h-7c-1,0-1.3-.3-1.2-1.2v-70c0-3-.2-2.6,2.5-2.6h6.5c.9,0,1.3.4,1.2,1.3v35.6Z"/>
  <path class="cls-6" d="m240.22,189.1c.2,5.8-2.4,10.5-6.7,14.4-1.5,1.3-3.1,2.5-4.8,3.6-.5.3-1,.6-1.4-.1-.3-.6-1.2-1.2-.2-2,1.5-1.3,2.8-2.8,4-4.5,1.3-1.9,2.2-3.9,2.6-6.1q.3-1.8-1.4-2.3c-1.3-.3-2.6-.9-3.6-1.8-2.1-1.9-2.1-4.2,0-6.1,2.4-2.1,5.2-3.4,8.3-4.2,1.6-.4,1.8-.3,2.3,1.5.7,2.4,1,4.8.9,7.6Z"/>
</svg>