<?xml version="1.0" encoding="utf-8"?>
<!-- Generator: Adobe Illustrator 27.6.1, SVG Export Plug-In . SVG Version: 6.00 Build 0)  -->
<svg version="1.1" id="Calque_1" xmlns="http://www.w3.org/2000/svg" xmlns:xlink="http://www.w3.org/1999/xlink" x="0px" y="0px"
	 viewBox="0 0 696 327" style="enable-background:new 0 0 696 327;" xml:space="preserve">
<style type="text/css">
	.st0{fill:#C2AC9D;}
	.st1{fill:#C0AA9B;}
	.st2{fill:#BFA999;}
	.st3{fill:#403B3B;}
	.st4{fill:#403A3A;}
	.st5{fill:#3F3939;}
	.st6{fill:#C0AA9A;}
	.st7{fill:#3C3636;}
	.st8{fill:#3C3737;}
</style>
<g>
	<path class="st0" d="M552.1,152.9c0,17.9,0,35.8,0,53.7c0,0.7,0,1.4,0,2.2c0,0.9-0.5,1.6-1.4,1.6s-1.5-0.5-1.7-1.4
		c-0.2-0.6-0.1-1.3-0.1-1.9c0-6.8,0-13.6,0-20.4c0-28.5,0-57.1,0-85.6c0-3,0-2.9-3-3.4c-8-1.2-15.9-2.5-23.9-3.7
		c-8.7-1.4-17.5-2.6-26.3-4c-7.6-1.2-15.1-2.5-22.7-3.6c-6.7-1.1-13.4-2-20.1-3.1c-6.4-1-12.8-2-19.1-3c-0.4-0.1-0.8-0.2-1.2-0.2
		c-0.7-0.1-1.1,0.3-1.1,0.9c0,0.6,0,1.1,0,1.7c0,4.5,0,9,0,13.4c0,2.5-0.5,2.9-3,2.7c-2.1-0.2-2.2-0.2-2.2,2.2c0,16.9,0,33.9,0,50.8
		c0,15.2,0,30.4,0,45.6c0,0.6,0,1.1,0,1.7c0.1,1.6,0.2,1.8,1.8,1.8c3.8,0,7.5,0,11.3,0c2,0,2.7,0.4,2.7,1.6s-0.7,1.7-2.6,1.7
		c-4.6,0-9.1,0-13.7,0c-2.1,0-2.7-0.6-2.8-2.7c0-0.6,0-1.3,0-1.9c0-32.6,0-65.2,0-97.9c0-0.6,0-1.3,0-1.9c-0.1-1.7-0.2-1.8-1.9-2.1
		c-7.3-1.1-14.7-2.2-22-3.2c-5.5-0.8-11-1.6-16.6-2.4c-1.7-0.2-1.9,0-1.9,1.8c0,0.6,0,1.3,0,1.9c0,35.3,0,70.7,0,106
		c0,4-0.2,4.3-4.4,4.3c-7.4,0-14.9,0.5-22.3,0.7c-4.8,0.1-9.6,0.1-14.4,0.4c-4.8,0.4-9.6,0.2-14.4,0.5c-9.4,0.5-18.8,0.7-28.3,1
		s-19,0.6-28.5,1c-4.7,0.2-9.4,0.2-14.1,0.4c-1.3,0-2.6,0.2-3.8,0.3c-4.8,0.6-9.3-0.8-13.9-2c-9.9-2.5-19.8-5-29.7-7.5
		c-2.7-0.7-2.8-0.8-2.8-3.6c0-20.5,0-40.9,0-61.4c0-2,0.7-3,2.5-3.8c12.2-5.1,24.4-10.3,36.6-15.5c0.3-0.1,0.6-0.3,0.9-0.4
		c1.5-0.5,2.5,0.1,2.7,1.7c0.1,0.7,0,1.4,0,2.2c0,27.5,0,55,0,82.5c0,0.5,0,1,0,1.4c0,2.8,0,2.7,2.8,2.3c6-0.9,12-1.7,18-2.6
		c5.9-0.9,11.8-1.7,17.8-2.6c5.1-0.7,10.1-1.5,15.2-2.2c5.4-0.8,10.7-1.6,16.1-2.4c0.9-0.1,1.3-0.5,1.2-1.4c0-0.6,0-1.1,0-1.7
		c0-23.3,0-46.7,0-70c0-3.5,0-3.1-3.3-3.3c-4.9-0.3-9.9-0.9-14.8-1.3c-2.2-0.2-4.5-0.3-6.7-0.5c-8.7-0.8-17.5-1.3-26.3-2.1
		c-5.7-0.5-11.4-1-17.2-1.4c-7.8-0.6-15.6-1.1-23.4-2c-3.2-0.4-5.7,0.3-8.4,1.8c-10.8,5.9-21.7,11.6-32.6,17.4
		c-3.4,1.8-3.4,1.8-3.4,5.6c0,22.2,0,44.5,0,66.7c0,0.6,0,1.1,0,1.7c-0.1,2-0.6,2.6-2.6,2.5c-2.9-0.2-5.7-0.5-8.6-0.7
		c-2.5-0.2-5.1-0.5-7.6-0.7c-1.5-0.1-1.6,0-1.6,1.6c0,2.2,0,4.5,0,6.7c0,1.1,0,2.2,0,3.4c0,1.6-0.6,2.5-1.6,2.5
		c-1-0.1-1.6-0.9-1.7-2.5c0-3.4,0-6.7,0-10.1c0-1.9,0-1.9-2-2.1c-5.2-0.5-10.5-1-15.7-1.4c-3.3-0.3-6.5-0.6-9.8-0.9
		c-0.2,0-0.3,0-0.5,0c-1-0.2-1.7-0.7-1.7-1.7c0.1-1,0.8-1.6,1.8-1.6c1.2,0,2.4,0,3.6,0.1c6.9,0.6,13.8,1.2,20.7,1.9
		c0.2,0,0.5,0,0.7,0.1c2.8,0.4,2.8,0.4,2.8-2.6c0-25.6,0-51.2,0-76.7c0-2.3,0.7-3.8,2.5-5.3c5.8-4.8,11.3-9.9,17-14.8
		c6.8-5.9,13.7-11.8,20.5-17.7c5.6-4.9,11.2-9.8,16.8-14.7c1.7-1.5,3.6-2.9,5.3-4.5c1-0.9,2-1.2,3.3-1c2.9,0.4,5.9,0.8,8.8,1.2
		c6.2,0.9,12.3,1.8,18.5,2.7c5.8,0.9,11.7,1.7,17.5,2.5c6.2,0.9,12.5,1.8,18.7,2.7c6,0.9,12,1.8,18,2.6c6.1,0.9,12.2,1.8,18.2,2.6
		c5.8,0.8,11.7,1.7,17.5,2.5c6.2,0.9,12.3,1.8,18.5,2.7c5.1,0.7,10.1,1.5,15.1,2.2c0.2,0,0.5,0.1,0.7,0.1c2.3,0.3,2.5,0.1,2.5-2.2
		c0-4.9,0-9.8,0-14.6c0-2.8,0-2.9,2.7-3.6c8.7-2.3,17.4-4.6,26.2-6.9c5.5-1.4,11-2.9,16.4-4.4c0.7-0.2,1.4-0.4,2.1-0.4
		c0.9,0,1.5,0.5,1.6,1.4c0.1,0.6,0,1.3,0,1.9c0,11.1,0,22.2,0,33.3c0,0.6,0,1.3,0,1.9c0,0.6,0.3,1.1,1,1.1c0.8,0,0.8-0.6,0.8-1.2
		c0-1.4,0-2.7,0-4.1c0-3.8,0-7.7,0-11.5c0-1.9,0.7-2.5,2.5-2.2c7.2,1.1,14.3,2.3,21.5,3.4c6.8,1.1,13.5,2.1,20.3,3.2
		c7.7,1.2,15.4,2.5,23.2,3.7c7.6,1.2,15.1,2.3,22.7,3.5c8.7,1.4,17.5,2.8,26.2,4.2c1.3,0.2,2.7,0.4,4,0.6c3.4,0.5,3.5,0.5,3.5,4.1
		C552.1,117,552.1,135,552.1,152.9z M280,205.4c1,0.6,1.8,0.4,2.6,0.4c4-0.1,8-0.1,12-0.4c4.6-0.3,9.3-0.3,13.9-0.4
		c9.6-0.4,19.2-0.5,28.7-1c4.6-0.2,9.3-0.2,13.9-0.4c7.6-0.4,15.2-0.5,22.8-0.7c3.6-0.1,3.4,0.2,3.4-3.4c0-35,0-70,0-105
		c0-0.5,0-1,0-1.4c0.1-1.2-0.5-1.7-1.6-1.9c-4.7-0.6-9.3-1.3-14-2c-6.2-0.9-12.3-1.8-18.5-2.7c-5.8-0.9-11.7-1.7-17.5-2.6
		c-7.1-1-14.2-2-21.3-3c-6-0.9-12-1.8-18-2.7c-6.2-0.9-12.3-1.7-18.5-2.6c-7.1-1-14.2-2.1-21.3-3.2c-7.1-1-14.2-1.9-21.3-3.1
		c-2.2-0.4-3.6,0.2-5.1,1.6c-3.1,2.8-6.3,5.6-9.5,8.4c-5.8,5.1-11.7,10.2-17.5,15.2c-4.1,3.6-8.2,7.1-12.3,10.7
		c-5.9,5.1-11.8,10.3-17.7,15.4c-1.4,1.2-1.8,2.4-1.8,4.2c0,25.3,0,50.7,0,76c0,0.3,0,0.6,0,1c0.1,1.9,0.1,2,2.1,2.1
		c4.4,0.4,8.8,0.7,13.1,1.1c1.8,0.2,1.9,0.1,2-1.7c0-0.6,0-1.3,0-1.9c0-19.7,0-39.3,0-59c0-2.9,0.1-5.8,0-8.6c0-1.3,0.5-2,1.6-2.6
		c13.1-6.9,26.1-13.9,39.1-20.9c1.3-0.7,2.5-1,3.9-0.8c4.5,0.4,9.1,0.6,13.6,1.1c2,0.2,4,0.3,6,0.5c4.8,0.4,9.7,0.9,14.5,1.3
		c4.7,0.4,9.4,0.7,14.1,1.1c6.5,0.6,13,1.2,19.5,1.8c6.9,0.6,13.9,1,20.8,1.6c2.1,0.2,4.3,0.2,6.4,0.5c2.6,0.3,3,0.8,3,3.4
		c0,25.3,0,50.5,0,75.8c0,2.8-0.4,3.2-3.3,3.6c-2.8,0.3-5.5,0.7-8.3,1.1c-7.4,1.1-14.8,2.2-22.2,3.3
		C284.9,204.6,282.6,205,280,205.4z M243.2,120.5c-0.7-0.1-1.1,0.2-1.5,0.3c-10.8,4.6-21.6,9.2-32.4,13.8c-1.5,0.6-2,1.4-2,3
		c0.1,19.3,0,38.5,0,57.8c0,2.2,0,2.2,2.1,2.7c7.7,1.9,15.3,3.9,23,5.8c3.5,0.9,7.1,1.8,10.8,2.7
		C243.2,177.8,243.2,149.2,243.2,120.5z M422.7,59.7c-0.5-0.2-1,0.1-1.4,0.2c-7.6,2-15.3,4-22.9,6c-5.3,1.4-10.6,2.8-16,4.2
		c-1,0.3-1.9,0.5-1.9,2c0.1,5,0.1,10.1,0,15.1c0,1.1,0.5,1.5,1.5,1.6c2.8,0.4,5.7,0.9,8.5,1.3c9.9,1.4,19.7,2.9,29.6,4.3
		c2.7,0.4,2.9,0.3,2.9-2.5c0-10,0-20,0-29.9C423,61.2,423.3,60.3,422.7,59.7z"/>
	<path class="st1" d="M562.5,292.5c0.9-1,1.3-2.3,1.9-3.6c4.8-10.9,9.5-21.8,14.3-32.7c2.5-5.8,5.1-11.5,7.5-17.4
		c0.6-1.3,1.2-2,2.8-2c2.7,0.1,5.4,0.1,8.2,0c1,0,1.4,0.4,1.4,1.4c0,2.6,0.4,5.2,0.5,7.9c0.3,7.2,0.9,14.3,1.3,21.5
		c0.2,3.1,0.2,6.2,0.5,9.3c0.4,4.7,0.3,9.4,0.7,14.1c0.5,6.4,0.8,12.9,1.1,19.3c-0.7,0.6-1.6,0.3-2.3,0.3c-2.5,0-5,0-7.4,0
		c-1.2,0-1.8-0.5-1.8-1.7c0-0.2,0-0.3,0-0.5c-0.2-4.9-0.4-9.7-0.6-14.6c-0.3-7.7-0.7-15.3-1.1-23c-0.3-6.6-0.8-13.2-0.9-19.8
		c0-1.2-0.1-2.3-0.7-3.7c-2,4.5-4,8.8-5.9,13.1c-4,9-7.9,18-11.9,27c-3,6.9-6.1,13.7-9.2,20.6c-0.4,1-0.5,2.6-2.1,2.5
		c-1.4-0.1-1.4-1.5-1.9-2.5c-3.3-7.3-6.6-14.6-9.9-21.8c-5.2-11.6-10.5-23.1-15.7-34.7c-0.2-0.4-0.3-0.9-0.8-1.2
		c-0.8,0.1-0.5,0.7-0.5,1.1c-0.2,5-0.3,10.1-0.6,15.1c-0.6,7.6-0.7,15.3-1.2,22.9c-0.3,4.7-0.6,9.4-0.6,14.1c0,1.9-0.3,3.8-0.4,5.7
		c-0.1,0.9-0.4,1.2-1.3,1.3c-3.5,0.3-3.7,0.2-3.5-3.3c0.4-7.3,0.9-14.6,1.3-22c0.2-3,0.2-6.1,0.5-9.1c0.4-4.4,0.4-8.9,0.7-13.4
		c0.4-6.9,0.9-13.8,1.3-20.8c0.1-1.4,0.1-2.7,0.1-4.1c0-0.9,0.4-1.3,1.3-1.3c2.7,0,5.4,0,8.2,0c1.2,0,1.5,0.8,1.8,1.6
		c2.1,4.6,4.3,9.3,6.4,13.9c2.9,6.2,5.7,12.5,8.5,18.8c2.9,6.4,5.9,12.8,8.8,19.2C561.6,291.1,561.8,291.9,562.5,292.5z"/>
	<path class="st1" d="M509.3,271.5c0.1,6.7-0.9,12.8-3.4,18.6c-4.2,9.4-11.4,15.6-20.9,19.2c-5.7,2.2-11.7,3.2-17.9,2.8
		c-14-0.9-25.3-9-29.4-23.1c-1.9-6.4-2.1-12.8-1.4-19.4c0.6-5.9,2.2-11.4,5.3-16.5c4.4-7.2,10.8-11.9,18.6-14.8
		c5.5-2.1,11.3-3.1,17.1-2.8c8.7,0.4,16.4,3.2,22.6,9.5c5.2,5.3,7.9,11.9,9,19.2C509.2,266.8,509.4,269.4,509.3,271.5z M497.4,273.9
		c0.1-5.1-0.6-10.2-2-15.1c-1.1-3.9-2.9-7.4-5.5-10.5c-4.7-5.4-10.9-7.6-17.9-7.9c-1.3-0.1-2.5,0-3.7,0.5c-9,3.6-14.9,10.2-18,19.1
		c-3.9,11.3-3.1,22.6,1,33.7c1.7,4.4,4.3,8.2,8.2,11c8.9,6.1,24.1,6.1,31.9-7.4C495.7,290,497.3,282.1,497.4,273.9z"/>
	<path class="st2" d="M422,273.9c0,11.1,0,22.2,0,33.3c0,0.5,0,1,0,1.4c0,2.1,0,2.1-2.1,2.1c-2,0-4,0-6,0c-2.5,0-2.5,0-2.5-2.7
		c0-10.1,0-20.3,0-30.4c0-3.8,0.4-3.4-3.3-3.4c-9.3,0-18.5,0-27.8,0c-0.6,0-1.1,0-1.7,0c-0.8,0-1.2,0.3-1.2,1.1c0,0.6,0,1.3,0,1.9
		c0,10.1,0,20.1,0,30.2c0,0.6,0,1.1,0,1.7c0.1,1.1-0.3,1.6-1.5,1.6c-2.6-0.1-5.1-0.1-7.7,0c-1.2,0-1.6-0.5-1.5-1.6c0-0.5,0-1,0-1.4
		c0-22.6,0-45.2,0-67.8c0-0.5,0-1,0-1.4c-0.1-1.3,0.5-1.6,1.7-1.6c2.4,0.1,4.8,0,7.2,0c1.7,0,1.7,0.1,1.8,1.8c0,5.4,0,10.7,0,16.1
		c0,4.5,0,8.9,0,13.4c0,1.7,0.1,1.8,1.7,1.8c10.2,0,20.3,0,30.5,0c1.7,0,1.8-0.1,1.8-2c0-9.3,0-18.7,0-28c0-3.4-0.3-3,3.1-3
		c1.9,0,3.8,0,5.8,0c1.7,0,1.7,0.1,1.8,1.8c0,3.4,0,6.7,0,10.1C422,257.1,422,265.5,422,273.9z"/>
	<path class="st3" d="M110.4,251.1c0,1.1,0,1.9,0,2.8c0,17.9,0,35.8,0,53.7c0,0.5,0,1,0,1.4c0,1.8,0,1.8-1.9,1.8c-1,0-1.9,0.1-3-0.2
		c0-24.5,0-49,0-73.7c2.5,0,4.8,0,7.2,0c1.1,0,1.5,0.8,2,1.4c3.1,3.9,6.3,7.9,9.4,11.8c10.1,12.7,20.2,25.4,30.2,38.1
		c0.5,0.7,0.9,1.5,1.8,2c0.5-0.8,0.3-1.7,0.3-2.5c0-16.1,0-32.1,0-48.2c0-3-0.3-2.6,2.7-2.6c0.5,0,1,0,1.4,0c0.6,0,0.8,0.4,0.8,0.9
		c0,0.6,0,1.1,0,1.7c0,23.3,0,46.7,0,70c0,0.4,0,0.8,0,1.2c-0.1,1.3-1.1,1.8-2.1,1c-0.6-0.5-1.1-1.2-1.6-1.8
		c-15.2-19-30.3-37.9-45.5-56.9C112,252.4,111.6,251.6,110.4,251.1z"/>
	<path class="st4" d="M172.9,310.8c1.1-2.5,2-4.7,3-6.9c9.7-22.2,19.4-44.3,29.2-66.5c0.4-0.9,0.4-2.2,1.7-2.3
		c1.6-0.1,1.5,1.4,1.9,2.4c10.4,23.7,20.8,47.4,31.2,71.1c0.3,0.6,0.7,1.3,0.7,2.2c-3.7,0-7.3,0-11,0c-1,0-1.2-0.7-1.4-1.3
		c-1-2.4-2-4.7-2.9-7.1c-1.4-3.3-2.8-6.6-4.1-10c-0.5-1.3-1.1-1.8-2.6-1.8c-9.8,0.1-19.5,0.1-29.3,0c-1.6,0-2.2,0.6-2.8,1.9
		c-2.1,5.2-4.2,10.4-6.4,15.5c-1.4,3.3-0.4,2.6-4.1,2.7C175.1,310.8,174.2,310.8,172.9,310.8z M188.9,286.3c10,0,19.6,0,29.5,0
		c-4.9-11.9-9.7-23.7-14.6-35.9C198.8,262.6,193.9,274.4,188.9,286.3z"/>
	<path class="st5" d="M316.3,246.6c-5.8-2.4-11.4-4.5-17.3-5.6c-1.9-0.3-3.8-0.6-5.7-0.7c-3.5-0.2-6,1.3-7.3,4.6
		c-1.9,4.6-1.3,8.9,1.7,12.9c1.9,2.4,4.2,4.4,6.8,6.1c2.8,1.8,5.7,3.6,8.6,5.3c3.2,1.9,6.3,3.8,9.3,5.9c1.9,1.4,3.6,2.9,5.2,4.6
		c7.9,8.1,5.2,21.4-2.4,27.2c-3.6,2.7-7.7,4.2-12.1,4.9c-9.4,1.5-18.4-0.4-27.3-3.4c-0.9-0.3-1.3-0.8-1.2-1.8c0.1-0.9,0-1.8,0-2.6
		c0-0.3,0-0.6,0.1-1.2c1,0.4,1.9,0.8,2.8,1.2c4.7,2.1,9.5,3.8,14.7,4.3c3.7,0.3,7.3-0.1,10.8-1.6c9-3.9,10.2-16.5,4-21.9
		c-1.8-1.6-3.6-3.2-5.7-4.4c-3.1-1.8-6.2-3.6-9.4-5.3c-3.1-1.7-6.3-3.5-9.1-5.8c-3.4-2.8-6.2-6-7.3-10.4c-2.1-9,2.8-17.8,11.8-21.3
		c4-1.5,8.2-1.9,12.5-1.7c5.5,0.2,10.9,1.5,16.2,3c1.2,0.3,1.5,0.8,1.3,2C317,242.5,317,244.5,316.3,246.6z"/>
	<path class="st6" d="M667.2,303.5c0.1,2.2-0.5,4.1-0.8,6c-0.1,0.8-0.5,1.3-1.4,1.2c-0.5,0-1,0-1.4,0c-12.9,0-25.7,0-38.6,0
		c-0.5,0-1,0-1.4,0c-1,0.1-1.5-0.3-1.5-1.4c0-0.6,0-1.1,0-1.7c0-22.6,0-45.2,0-67.8c0-3.2-0.3-3,2.9-3c13,0,25.9,0,38.9,0
		c0.3,0,0.6,0,1,0c2,0,1.9,0,1.6,2.1c-0.2,1.4-0.5,2.8-0.6,4.3c-0.1,1-0.4,1.2-1.4,1c-3.7-0.7-7.4-1.2-11.1-1.8
		c-2.3-0.4-4.5-0.9-6.8-1.1c-4.2-0.5-8.3,0.2-12.3,1.3c-1.2,0.3-1.5,1-1.5,2.1c0,7.9,0,15.8,0,23.7c0,1.6,0.1,1.7,1.8,1.7
		c6.8,0,13.6,0,20.4,0c2.5,0,3.3,1.1,2.6,3.5c-0.1,0.4-0.4,0.7-0.8,0.7c-0.6,0-1.3,0-1.9,0c-6.6,0-13.1,0-19.7,0
		c-2.4,0-2.4,0-2.4,2.3c0,9.3,0,18.5,0,27.8c0,2.2,0,2.2,2.1,2.1c4.1-0.3,8.3-0.7,12.4-1.1c4-0.4,7.9-0.9,11.9-1.2
		C661.8,303.9,664.4,303.4,667.2,303.5z"/>
	<path class="st7" d="M62.9,303.7c-0.1,2.1-0.7,4.2-1,6.3c-0.1,0.6-0.4,0.8-1,0.8s-1.1,0-1.7,0c-11.9,0-23.8,0-35.7,0
		c-0.6,0-1.1,0-1.7,0s-0.8-0.3-0.8-0.9c0-0.5,0-1,0-1.4c0-23,0-46,0-69c0-0.3,0-0.6,0-1c-0.1-1.1,0.2-1.6,1.4-1.6
		c2.6,0.1,5.3,0.1,7.9,0c1.4-0.1,1.7,0.5,1.6,1.7c0,0.6,0,1.1,0,1.7c0,20.5,0,41.1,0,61.6c0,0.6,0,1.1,0,1.7c0,0.8,0.2,1.3,1.1,1.5
		c4.5,1.1,8.9,2.2,13.7,1.1c4.7-1.1,9.4-1.7,14.2-2.5C61.5,303.6,62.1,303.3,62.9,303.7z"/>
	<path class="st8" d="M85.5,273.9c0,11.6,0,23.2,0,34.8c0,2.2,0.2,2.1-2,2.1c-2.3,0-4.6,0-7,0c-1,0-1.3-0.3-1.2-1.2
		c0-0.4,0-0.8,0-1.2c0-22.9,0-45.9,0-68.8c0-3-0.2-2.6,2.5-2.6c2.2,0,4.3,0,6.5,0c0.9,0,1.3,0.4,1.2,1.3c0,0.6,0,1.1,0,1.7
		C85.5,251.2,85.5,262.6,85.5,273.9z"/>
	<path class="st3" d="M261.2,244.6c0.2,5.8-2.4,10.5-6.7,14.4c-1.5,1.3-3.1,2.5-4.8,3.6c-0.5,0.3-1,0.6-1.4-0.1
		c-0.3-0.6-1.2-1.2-0.2-2c1.5-1.3,2.8-2.8,4-4.5c1.3-1.9,2.2-3.9,2.6-6.1c0.3-1.8,0.3-1.8-1.4-2.3c-1.3-0.3-2.6-0.9-3.6-1.8
		c-2.1-1.9-2.1-4.2,0-6.1c2.4-2.1,5.2-3.4,8.3-4.2c1.6-0.4,1.8-0.3,2.3,1.5C261,239.4,261.3,241.8,261.2,244.6z"/>
</g>
</svg>
